<?xml version="1.0" standalone="no"?>
<!DOCTYPE svg PUBLIC "-//W3C//DTD SVG 20010904//EN"
 "http://www.w3.org/TR/2001/REC-SVG-20010904/DTD/svg10.dtd">
<svg version="1.0" xmlns="http://www.w3.org/2000/svg"
 width="604.000000pt" height="571.000000pt" viewBox="0 0 604.000000 571.000000"
 preserveAspectRatio="xMidYMid meet">

<g transform="translate(0.000000,571.000000) scale(0.100000,-0.100000)"
fill="#000000" stroke="none">
<path d="M0 2855 l0 -2855 3020 0 3020 0 0 2855 0 2855 -3020 0 -3020 0 0
-2855z m2950 2696 c0 -11 -7 -27 -16 -35 -26 -26 -84 -18 -84 12 0 24 -18 1
-22 -28 -3 -28 -45 -41 -58 -19 -6 9 -12 9 -24 -4 -9 -8 -16 -22 -16 -29 0
-23 -108 -128 -132 -129 -13 0 -17 -3 -10 -6 20 -8 14 -43 -8 -43 -23 0 -24
-4 -9 -32 8 -16 8 -24 -4 -35 -28 -28 -40 -5 -33 61 3 33 11 63 16 64 6 2 10
16 10 32 0 24 5 29 38 36 22 4 30 9 20 11 -19 5 -25 23 -7 23 16 0 39 26 39
44 0 11 9 16 26 16 16 0 37 12 54 30 21 23 37 30 64 30 20 0 36 5 36 10 0 6
27 10 60 10 53 0 60 -2 60 -19z m220 9 c0 -5 14 -10 30 -10 23 0 30 -4 30 -20
0 -16 7 -20 30 -20 23 0 30 -4 30 -20 0 -11 -4 -20 -10 -20 -5 0 -10 -7 -10
-16 0 -10 -7 -14 -22 -12 -17 2 -25 12 -29 38 -4 19 -7 27 -8 17 -1 -13 -8
-17 -23 -15 -18 2 -22 9 -20 28 2 22 1 23 -8 8 -24 -39 -120 -12 -120 34 0 16
8 18 65 18 37 0 65 -4 65 -10z m140 -120 c0 -5 -5 -10 -11 -10 -5 0 -7 5 -4
10 3 6 8 10 11 10 2 0 4 -4 4 -10z m100 -60 c0 -5 7 -10 15 -10 10 0 15 -10
15 -29 0 -21 6 -32 20 -36 11 -3 20 -15 20 -26 0 -10 5 -19 10 -19 15 0 13
-137 -2 -143 -38 -12 -69 39 -55 92 2 11 -3 23 -15 30 -15 9 -16 15 -8 31 9
17 8 20 -9 20 -21 0 -31 18 -31 57 0 21 3 23 14 14 12 -10 13 -8 9 8 -3 12 -1
21 6 21 6 0 11 -4 11 -10z m-890 -137 c0 -21 7 -51 15 -67 20 -38 20 -164 0
-202 -8 -16 -15 -23 -15 -16 0 6 -9 12 -20 12 -19 0 -20 7 -20 115 0 70 4 115
10 115 6 0 10 -4 10 -10 0 -5 5 -10 12 -10 9 0 9 3 0 12 -14 14 -16 88 -2 88
6 0 10 -17 10 -37z m1518 -228 c-4 -16 -1 -25 7 -25 8 0 11 8 8 20 -5 17 0 20
31 20 29 0 36 -4 36 -20 0 -11 7 -20 15 -20 25 0 62 -44 67 -80 4 -28 3 -30
-7 -16 -7 9 -19 14 -28 10 -8 -3 -29 2 -46 11 -22 11 -31 23 -32 43 -1 17 -3
20 -6 10 -5 -21 -41 -24 -49 -5 -8 21 -207 15 -229 -6 -20 -21 -30 -21 -47 -3
-11 11 -14 11 -24 -2 -14 -19 -34 -8 -34 19 0 26 18 24 23 -3 2 -13 5 -4 6 19
1 50 -1 49 190 51 l123 2 -4 -25z m-1828 -5 c0 -15 7 -20 25 -20 14 0 37 -11
51 -25 23 -23 24 -27 10 -41 -17 -16 -79 -13 -102 7 -6 5 -46 11 -89 12 -68 2
-78 5 -95 27 -20 26 -25 22 -32 -25 -2 -13 -12 -21 -31 -23 -15 -2 -27 -8 -27
-13 0 -14 -61 -48 -75 -43 -7 3 -16 1 -20 -5 -13 -23 -25 -9 -25 29 0 33 3 40
20 40 13 0 20 7 20 20 0 16 7 20 30 20 17 0 30 5 30 10 0 6 18 10 40 10 33 0
40 3 40 20 0 19 7 20 115 20 108 0 115 -1 115 -20z m1290 -55 c0 -37 -4 -65
-10 -65 -5 0 -10 -12 -10 -26 0 -14 -7 -32 -16 -41 -13 -13 -19 -14 -40 -2
-20 10 -24 19 -22 43 3 28 7 31 36 31 17 0 32 0 32 1 0 0 -9 11 -20 24 -35 40
-19 100 25 100 24 0 25 -3 25 -65z m-978 -47 l1 -33 4 33 c7 55 53 39 53 -19
0 -11 7 -22 15 -25 9 -4 17 -26 21 -55 4 -27 10 -52 15 -55 12 -7 -1 -34 -17
-34 -8 0 -14 5 -14 10 0 6 7 10 16 10 8 0 12 5 9 10 -3 6 -15 10 -25 10 -10 0
-24 8 -29 18 -6 9 -11 11 -11 5 0 -28 -20 -11 -20 17 0 23 -4 30 -20 30 -18 0
-20 7 -20 55 0 58 19 78 22 23z m1718 12 c0 -5 -7 -10 -15 -10 -8 0 -15 5 -15
10 0 6 7 10 15 10 8 0 15 -4 15 -10z m81 -135 c1 24 3 26 6 8 3 -15 12 -23 24
-23 14 0 19 -7 19 -25 0 -18 5 -25 20 -25 16 0 20 -7 20 -30 0 -16 5 -30 10
-30 6 0 10 -45 10 -115 0 -70 -4 -115 -10 -115 -5 0 -10 7 -10 16 0 10 -6 14
-14 11 -26 -10 -36 17 -36 99 0 61 -4 85 -15 94 -9 7 -13 20 -10 27 3 8 -4 22
-16 31 -13 11 -22 33 -25 62 l-4 45 14 -30 15 -30 2 30z m-911 -21 c0 -38 -18
-64 -44 -64 -9 0 -16 -7 -16 -16 0 -23 -25 -44 -54 -44 -19 0 -26 -5 -26 -20
0 -16 -7 -20 -30 -20 -16 0 -30 -4 -30 -10 0 -5 -20 -10 -45 -10 -43 0 -45 1
-45 29 0 21 6 32 20 36 24 8 50 -10 50 -34 0 -12 2 -13 9 -3 4 7 6 24 3 38 -3
18 0 24 14 24 11 0 46 29 79 64 44 47 67 64 88 65 25 1 27 -2 27 -35z m30 21
c0 -8 -4 -15 -10 -15 -5 0 -10 7 -10 15 0 8 5 15 10 15 6 0 10 -7 10 -15z
m-1722 -27 c18 -18 15 -33 -18 -68 -16 -18 -27 -36 -24 -41 9 -16 -16 -39 -42
-39 -27 0 -28 -21 -1 -32 13 -6 17 -19 17 -65 0 -61 -6 -77 -29 -85 -9 -2 0
-11 22 -22 20 -9 37 -22 37 -29 1 -7 5 -32 10 -57 7 -39 6 -42 -6 -26 -7 10
-16 24 -19 30 -3 8 -7 7 -11 -1 -3 -7 -14 -13 -25 -13 -16 0 -19 7 -19 44 0
26 5 46 13 49 6 3 -3 6 -20 6 l-33 1 0 93 c0 81 2 94 20 107 14 10 20 26 20
52 0 21 5 38 10 38 6 0 10 13 10 29 0 23 5 31 23 34 41 8 53 7 65 -5z m857
-43 c14 -13 25 -31 25 -40 0 -8 5 -15 11 -15 16 0 39 -26 39 -44 0 -9 7 -16
16 -16 8 0 22 -6 30 -14 8 -8 14 -22 14 -30 0 -9 7 -16 16 -16 18 0 44 -23 44
-39 0 -6 7 -11 16 -11 8 0 22 -6 30 -14 8 -8 14 -22 14 -30 0 -9 8 -16 19 -16
16 0 20 -10 26 -61 4 -33 5 -63 2 -66 -3 -2 -15 -2 -26 2 -23 7 -29 40 -8 48
6 3 0 6 -14 6 -36 1 -339 294 -339 327 0 13 4 24 10 24 5 0 7 7 4 15 -10 25
44 18 71 -10z m920 15 c-3 -5 -14 -10 -23 -9 -14 0 -13 2 3 9 27 11 27 11 20
0z m-5 -23 c0 -13 -41 -48 -49 -42 -7 4 -11 -3 -11 -18 0 -23 -7 -32 -123
-162 -228 -254 -708 -745 -729 -745 -11 0 -18 -7 -18 -18 0 -22 -31 -51 -83
-78 -49 -24 -54 -32 -31 -49 22 -15 74 -65 282 -268 126 -123 153 -154 149
-173 -5 -27 16 -39 44 -24 29 16 59 -4 59 -40 0 -29 -1 -30 -51 -30 l-51 0 6
30 c5 29 5 30 -34 30 -29 0 -40 4 -40 15 0 8 -7 15 -16 15 -20 0 -44 24 -44
44 0 9 -7 16 -16 16 -20 0 -44 24 -44 44 0 9 -8 16 -19 16 -11 0 -21 6 -24 13
-2 7 -8 8 -13 3 -5 -5 -4 -11 4 -13 6 -3 12 -13 12 -24 0 -11 7 -19 16 -19 20
0 44 -24 44 -44 0 -9 7 -16 16 -16 18 0 44 -23 44 -39 0 -6 7 -11 16 -11 20 0
44 -24 44 -44 0 -9 8 -16 19 -16 21 0 31 -49 31 -155 0 -106 -10 -155 -31
-155 -11 0 -19 -7 -19 -16 0 -8 -7 -23 -16 -31 -13 -13 -17 -14 -24 -3 -6 10
-11 6 -16 -15 -9 -35 -26 -55 -48 -55 -9 0 -16 -9 -16 -20 0 -15 -9 -22 -30
-26 -17 -4 -30 -13 -30 -21 0 -17 -24 -43 -39 -43 -6 0 -11 -9 -11 -19 0 -11
-6 -21 -12 -24 -8 -2 -9 -8 -4 -13 5 -5 11 -3 14 4 2 8 29 37 58 65 156 150
224 218 224 227 0 6 20 10 45 10 43 0 45 -1 45 -30 0 -22 -6 -33 -22 -39 -13
-5 -124 -114 -248 -242 -375 -389 -396 -409 -413 -409 -9 0 -17 6 -17 13 0 8
-4 7 -10 -3 -7 -11 -10 -4 -10 28 0 23 5 42 10 42 6 0 10 9 10 20 0 12 7 20
16 20 20 0 44 24 44 44 0 9 5 16 11 16 16 0 39 26 39 44 0 9 7 16 16 16 18 0
44 23 44 39 0 6 7 11 16 11 28 0 47 28 38 58 l-8 27 -4 -32 c-2 -21 -9 -33
-18 -33 -18 0 -44 -24 -44 -39 0 -15 -37 -14 -43 2 -5 16 34 68 46 60 6 -3 7
-1 3 5 -3 6 7 25 24 42 16 17 30 33 30 35 0 2 12 17 28 33 291 307 301 322
309 413 4 48 10 69 19 69 8 0 14 4 14 9 0 5 -9 7 -20 4 -15 -4 -36 10 -83 58
-35 35 -145 142 -245 238 -99 96 -183 180 -187 188 -3 8 -2 25 1 39 5 18 13
24 35 24 16 0 29 3 29 6 0 10 -28 34 -39 34 -7 0 -11 23 -11 55 l0 55 -60 0
c-53 0 -60 2 -60 20 0 11 -4 20 -10 20 -5 0 -10 9 -10 20 0 12 -7 20 -16 20
-24 0 -44 25 -45 57 0 15 -3 22 -6 16 -12 -32 -53 2 -53 44 0 20 -3 24 -9 14
-8 -12 -12 -12 -25 2 -9 8 -16 20 -16 26 0 6 -7 11 -16 11 -20 0 -44 24 -44
44 0 9 -7 16 -16 16 -20 0 -44 24 -44 44 0 9 -7 16 -16 16 -20 0 -44 24 -44
44 0 9 -7 16 -16 16 -8 0 -21 6 -28 13 -18 17 -28 65 -16 72 6 4 7 -1 3 -11
-5 -13 -2 -15 15 -9 14 4 22 2 22 -5 0 -6 8 -14 18 -17 9 -4 27 -17 39 -30 12
-13 25 -23 28 -23 6 0 20 -11 69 -55 38 -35 263 -244 282 -262 7 -7 18 -13 24
-13 6 0 22 -7 36 -16 21 -14 29 -15 49 -4 29 15 55 7 55 -17 0 -15 2 -16 10
-3 5 8 10 25 10 38 0 12 6 22 13 22 6 0 30 3 51 7 32 5 38 4 31 -8 -4 -8 1 -6
11 4 17 15 17 19 4 28 -12 8 -10 9 8 4 23 -6 32 10 10 17 -10 4 -9 9 3 21 11
10 20 12 26 6 6 -6 9 -2 8 13 -2 26 27 66 110 154 31 32 64 69 72 82 10 14 25
22 44 22 l29 0 -21 21 c-16 16 -18 23 -8 35 18 21 49 18 49 -6 0 -12 7 -20 16
-20 18 0 44 23 44 39 0 6 7 11 16 11 8 0 22 6 30 14 8 8 14 22 14 30 0 9 7 16
16 16 8 0 22 6 30 14 8 8 14 22 14 30 0 9 7 16 16 16 8 0 22 6 30 14 8 8 14
22 14 30 0 9 9 16 20 16 15 0 22 9 27 30 3 17 12 30 20 30 17 0 43 24 43 39 0
6 7 11 16 11 8 0 22 6 30 14 8 8 14 22 14 30 0 9 7 16 16 16 20 0 44 24 44 44
0 9 7 16 16 16 8 0 22 6 30 14 8 8 14 22 14 30 0 19 26 22 32 4 3 -9 9 -8 22
5 17 16 26 21 26 14z m-716 -32 c20 -14 48 -25 61 -25 27 0 48 -30 39 -54 -4
-12 -20 -16 -55 -16 -27 0 -49 5 -49 10 0 6 -13 10 -30 10 -23 0 -30 4 -30 20
0 11 -5 20 -10 20 -6 0 -10 8 -8 17 2 10 -6 20 -22 25 -21 6 -20 7 7 3 18 -2
35 0 38 5 9 15 19 12 59 -15z m327 -74 c10 -13 19 -32 19 -42 0 -18 -9 -19
-120 -19 -97 0 -120 3 -120 14 0 24 12 46 21 40 5 -3 9 0 9 6 0 17 34 25 105
25 58 0 69 -3 86 -24z m1309 -212 c0 -32 -3 -39 -20 -39 -13 0 -20 -7 -20 -20
0 -13 -7 -20 -20 -20 -11 0 -21 -6 -21 -12 -1 -7 -5 5 -9 27 -4 21 -4 46 1 55
4 8 10 23 13 32 4 15 50 29 69 20 4 -2 7 -21 7 -43z m150 -63 c0 -31 -24 -50
-55 -44 -19 4 -25 1 -25 -13 0 -10 -8 -20 -19 -24 -21 -6 -47 -31 -175 -166
-224 -235 -380 -390 -395 -391 -45 -3 -50 1 -44 39 8 47 24 63 63 66 25 2 28
4 15 13 -19 14 -19 24 1 24 8 0 22 6 30 14 8 8 14 22 14 30 0 9 5 16 11 16 6
0 17 6 25 14 8 8 14 19 14 25 0 6 7 11 16 11 8 0 22 6 30 14 8 8 14 22 14 30
0 9 7 16 16 16 20 0 44 24 44 44 0 9 7 16 16 16 20 0 44 24 44 44 0 9 7 16 16
16 8 0 22 6 30 14 8 8 14 22 14 30 0 9 5 16 11 16 6 0 17 6 25 14 8 8 14 19
14 25 0 6 7 11 16 11 8 0 22 6 30 14 8 8 14 22 14 30 0 9 8 16 20 16 11 0 20
5 20 10 0 6 8 10 18 10 10 0 24 9 32 20 11 15 26 20 57 20 39 0 43 -2 43 -24z
m220 4 c0 -15 7 -20 25 -20 14 0 25 -4 25 -10 0 -5 9 -10 20 -10 13 0 20 -7
20 -20 0 -15 7 -20 26 -20 26 0 54 -20 54 -39 0 -6 7 -11 16 -11 21 0 44 -25
44 -48 0 -32 11 -52 29 -52 13 -1 13 -3 -3 -12 -13 -7 -21 -8 -23 -1 -2 6 -14
8 -26 6 -16 -3 -37 10 -79 51 -31 30 -59 63 -63 75 -3 11 -9 20 -13 20 -27 -4
-55 4 -69 20 -9 11 -22 17 -30 14 -22 -9 -63 25 -63 52 0 24 3 25 55 25 48 0
55 -2 55 -20z m-3230 -30 c0 -5 14 -10 30 -10 21 0 30 -5 30 -16 0 -20 24 -44
44 -44 9 0 16 -5 16 -11 0 -16 26 -39 44 -39 9 0 16 -7 16 -16 0 -18 23 -44
39 -44 6 0 11 -7 11 -16 0 -20 24 -44 44 -44 9 0 16 -7 16 -16 0 -20 24 -44
44 -44 9 0 16 -7 16 -16 0 -20 24 -44 44 -44 9 0 16 -5 16 -11 0 -6 14 -24 32
-41 26 -24 29 -31 17 -39 -12 -8 -12 -10 1 -19 17 -11 10 -13 -14 -4 -10 4
-16 18 -16 35 0 30 -14 39 -24 17 -5 -10 -7 -10 -12 0 -3 6 -12 12 -19 12 -7
0 -12 8 -11 18 0 9 -5 16 -12 14 -20 -4 -49 19 -228 184 -45 41 -101 89 -125
106 -43 32 -46 33 -151 33 -72 0 -111 -4 -119 -12 -7 -7 -21 -13 -31 -13 -10
0 -21 -6 -24 -14 -3 -7 -33 -33 -68 -56 -36 -24 -77 -63 -96 -91 -29 -43 -40
-53 -60 -51 -3 0 -6 -11 -5 -26 0 -21 -5 -27 -22 -27 -11 0 -25 -4 -30 -9 -4
-5 -3 -6 4 -2 7 4 17 -2 23 -14 13 -25 -4 -64 -26 -56 -8 3 -14 -1 -15 -12 -1
-16 -2 -16 -6 1 -2 9 -9 17 -14 17 -5 0 -9 18 -9 40 0 33 3 40 20 40 16 0 20
7 20 30 0 17 5 30 10 30 6 0 10 14 10 30 0 20 5 30 15 30 8 0 15 9 15 20 0 12
7 20 16 20 20 0 44 24 44 44 0 9 7 16 16 16 18 0 44 23 44 39 0 6 9 11 20 11
11 0 20 5 20 10 0 6 8 10 18 10 10 0 24 9 32 20 8 11 25 20 37 20 13 0 23 5
23 10 0 6 55 10 145 10 90 0 145 -4 145 -10z m2747 -25 c-15 -16 -22 -11 -13
10 3 9 10 13 16 10 6 -4 5 -11 -3 -20z m-2574 -25 c-3 -12 -8 -19 -11 -16 -5
6 5 36 12 36 2 0 2 -9 -1 -20z m3347 -200 c0 -20 5 -30 15 -30 11 0 15 -11 15
-36 0 -34 -1 -35 -32 -32 -27 2 -32 7 -30 23 2 11 9 23 15 27 7 4 0 8 -16 8
-35 0 -45 25 -21 50 30 30 54 25 54 -10z m-1052 -72 c3 -29 -1 -38 -17 -43
-12 -3 -21 -11 -21 -16 0 -7 -62 -70 -262 -267 -4 -4 -52 -53 -107 -110 -68
-69 -109 -103 -125 -104 -14 -1 -22 -6 -20 -10 3 -4 11 -5 19 -1 9 3 15 -1 15
-10 0 -8 -13 -17 -30 -20 -21 -5 -30 -12 -30 -27 0 -11 -5 -20 -11 -20 -16 0
-39 -26 -39 -44 0 -9 -7 -16 -16 -16 -20 0 -44 -24 -44 -44 0 -9 -7 -16 -16
-16 -8 0 -22 -6 -30 -14 -8 -8 -14 -22 -14 -30 0 -9 -8 -16 -20 -16 -11 0 -20
-5 -20 -11 0 -6 -9 -9 -20 -6 -11 3 -20 1 -20 -4 0 -5 5 -9 10 -9 6 0 10 -4
10 -10 0 -5 -9 -10 -20 -10 -15 0 -22 -9 -26 -30 -6 -28 -9 -30 -55 -30 -48 0
-49 1 -49 30 0 27 6 33 43 49 39 17 64 38 114 97 35 41 240 258 404 428 91 94
206 213 256 264 72 75 95 93 114 90 20 -2 25 -10 27 -40z m1106 -44 c13 -5 16
-22 16 -85 0 -87 -7 -95 -55 -63 -21 14 -25 24 -25 63 0 50 13 73 36 64 10 -4
12 0 8 11 -7 18 -4 19 20 10z m-4169 -190 c24 -13 32 -63 13 -75 -23 -15 -38
-10 -39 14 l-2 22 -4 -22 c-7 -38 -23 -26 -23 17 0 38 19 76 30 61 3 -3 14
-11 25 -17z m1150 7 c-3 -6 -11 -11 -16 -11 -5 0 -4 6 3 14 14 16 24 13 13 -3z
m2995 -36 c0 -33 -4 -45 -15 -45 -8 0 -15 -9 -15 -20 0 -13 -29 -49 -70 -90
-38 -38 -70 -76 -70 -85 0 -8 -7 -15 -16 -15 -19 0 -44 -24 -44 -43 0 -8 -13
-17 -30 -20 -21 -5 -30 -12 -30 -27 0 -11 -5 -20 -11 -20 -16 0 -39 -26 -39
-44 0 -9 -7 -16 -16 -16 -20 0 -44 -24 -44 -44 0 -9 -7 -16 -16 -16 -8 0 -22
-6 -30 -14 -8 -8 -14 -22 -14 -30 0 -9 -7 -16 -16 -16 -18 0 -44 -23 -44 -39
0 -6 -9 -11 -20 -11 -15 0 -22 -9 -26 -30 -5 -25 -11 -30 -35 -30 -16 0 -29
-4 -29 -10 0 -5 -5 -10 -11 -10 -7 0 -9 9 -6 22 4 12 1 28 -6 36 -9 11 -5 18
18 35 35 25 24 14 275 276 107 112 217 227 245 255 27 28 49 55 47 60 -5 15
20 36 44 36 22 0 24 -4 24 -45z m-1270 -23 c0 -13 7 -18 23 -18 16 1 22 -5 22
-19 0 -16 -7 -20 -32 -22 -32 -1 -33 0 -33 38 0 21 5 39 10 39 6 0 10 -8 10
-18z m-1614 -60 c-17 -16 -18 -16 -5 5 7 12 15 20 18 17 3 -2 -3 -12 -13 -22z
m-1057 -131 c111 -107 123 -122 117 -145 -9 -35 -58 -37 -74 -3 -6 12 -11 16
-11 10 -1 -21 -21 -14 -21 7 0 11 -4 20 -10 20 -5 0 -48 38 -95 85 -46 47 -89
85 -95 85 -5 0 -10 16 -10 36 0 19 4 33 8 30 4 -2 14 -1 22 4 20 12 31 4 169
-129z m2653 77 c2 -18 11 -24 36 -26 26 -3 32 -8 32 -27 0 -14 -7 -25 -17 -28
-12 -3 -9 -5 8 -6 18 -1 72 -47 202 -172 97 -95 177 -178 177 -185 0 -8 9 -14
20 -14 17 0 19 -4 14 -27 -4 -16 -11 -29 -16 -31 -4 -2 -8 -17 -8 -32 0 -16
-4 -32 -10 -35 -5 -3 -10 1 -10 9 0 9 -7 16 -15 16 -22 0 -19 40 3 41 15 1 15
2 0 6 -9 2 -19 12 -21 21 -3 9 -5 2 -6 -15 -1 -35 -5 -39 -24 -23 -124 102
-339 306 -399 379 -16 18 -28 44 -28 57 0 38 -22 28 -79 -36 -66 -76 -91 -93
-125 -84 -22 5 -26 12 -26 40 0 24 5 34 16 34 20 0 44 24 44 44 0 9 7 16 16
16 20 0 44 24 44 44 0 9 8 16 20 16 13 0 20 7 20 20 0 18 7 20 64 20 59 0 65
-2 68 -22z m1301 -152 c10 -26 -18 -48 -66 -53 -26 -3 -47 -10 -47 -14 0 -5
-9 -9 -19 -9 -10 0 -33 -13 -51 -30 -18 -16 -38 -30 -46 -30 -13 0 -64 -59
-64 -75 0 -4 -11 -22 -23 -39 -13 -17 -27 -44 -31 -60 -4 -15 -15 -30 -26 -33
-14 -4 -17 -10 -12 -22 13 -25 7 -213 -7 -240 -7 -13 -8 -21 -3 -17 19 11 42
-6 42 -31 0 -14 7 -31 15 -37 8 -6 17 -31 21 -56 7 -41 6 -44 -10 -31 -14 12
-16 12 -10 -3 3 -9 1 -16 -5 -16 -6 0 -11 5 -11 10 0 6 -9 10 -20 10 -15 0
-20 7 -20 28 0 16 -8 34 -20 42 -14 10 -20 26 -20 52 0 21 -4 38 -10 38 -6 0
-10 55 -10 145 0 90 4 145 10 145 6 0 10 16 10 35 0 28 4 35 20 35 15 0 20 7
20 25 0 16 15 42 43 70 23 24 58 62 77 84 29 33 42 40 75 41 22 1 34 4 28 7
-24 9 -13 23 17 23 17 0 30 5 30 10 0 16 117 12 123 -4z m238 -8 c0 -13 3 -17
6 -10 5 14 53 17 53 3 0 -5 -10 -12 -22 -14 -13 -2 -1 -5 25 -6 37 -1 54 -7
73 -26 23 -23 24 -27 9 -41 -18 -18 -84 -12 -87 9 0 7 -2 17 -3 22 -2 6 -3 14
-4 19 0 6 -7 2 -14 -9 -15 -19 -37 -13 -37 10 0 10 -6 11 -27 3 -41 -15 -83 4
-83 37 0 24 3 25 55 25 50 0 55 -2 56 -22z m-4561 -58 c0 -37 -40 -58 -77 -41
-13 6 -22 7 -22 3 4 -24 -3 -33 -23 -30 -14 2 -27 -4 -33 -15 -5 -11 -23 -26
-40 -35 -35 -20 -73 -59 -81 -84 -3 -10 -15 -18 -28 -18 -19 0 -22 -4 -18 -25
3 -20 0 -25 -16 -25 -12 0 -24 -5 -28 -12 -4 -6 -3 -8 3 -5 12 8 27 -38 18
-53 -4 -6 -19 -10 -36 -10 -28 0 -29 2 -29 45 0 33 4 45 15 45 9 0 15 9 15 25
0 14 5 25 10 25 6 0 10 14 10 30 0 23 4 30 20 30 11 0 20 4 20 8 0 5 10 14 23
20 12 6 16 11 10 11 -7 1 -13 6 -13 11 0 14 27 12 33 -2 3 -7 6 -3 6 10 1 15
7 22 21 22 11 0 20 5 20 10 0 6 -4 10 -10 10 -5 0 -10 5 -10 10 0 6 14 10 30
10 23 0 30 4 30 20 0 16 7 20 35 20 37 0 43 -8 23 -29 -11 -10 -10 -11 5 -6 9
4 17 17 17 31 0 22 4 24 50 24 49 0 50 -1 50 -30z m260 20 c0 -5 23 -10 50
-10 39 0 50 -4 50 -16 0 -23 25 -44 54 -44 22 0 26 -4 27 -32 0 -18 3 -27 6
-20 8 19 23 14 23 -8 0 -11 5 -20 10 -20 6 0 10 -13 10 -30 0 -23 4 -30 20
-30 31 0 27 -46 -4 -52 -28 -6 -47 8 -39 28 3 8 -1 14 -11 14 -21 0 -96 73
-96 93 0 9 -14 17 -36 20 -20 3 -42 11 -50 18 -21 17 -17 39 8 39 12 0 19 3
15 6 -3 3 -29 0 -57 -7 -48 -12 -53 -12 -66 6 -8 10 -14 27 -14 37 0 15 8 18
50 18 28 0 50 -4 50 -10z m4555 -135 c21 -20 25 -34 25 -85 0 -52 -2 -60 -19
-60 -11 0 -21 6 -24 13 -6 18 12 49 25 41 6 -4 8 -3 5 3 -4 6 -17 8 -31 6 -20
-4 -26 1 -36 33 -11 33 -11 39 4 50 13 9 14 13 4 17 -8 4 -6 6 5 6 10 1 29
-10 42 -24z m55 -110 c0 -19 -4 -35 -10 -35 -5 0 -10 16 -10 35 0 19 5 35 10
35 6 0 10 -16 10 -35z m-2350 -5 c0 -5 -5 -10 -11 -10 -5 0 -7 5 -4 10 3 6 8
10 11 10 2 0 4 -4 4 -10z m-1970 -40 c0 -23 4 -30 20 -30 18 0 20 -7 20 -54 0
-49 -2 -54 -25 -58 -37 -7 -67 43 -47 79 7 12 5 21 -10 32 -19 16 -19 16 2 39
28 30 40 28 40 -8z m3091 0 c13 -10 18 -19 12 -20 -7 0 -13 -7 -13 -15 0 -12
-14 -15 -70 -15 -63 0 -70 -2 -70 -20 0 -11 -4 -20 -10 -20 -13 0 -13 27 0 43
6 7 19 24 31 40 26 34 84 38 120 7z m-1186 -4 c16 -11 17 -19 9 -57 -9 -42
-11 -44 -46 -47 -37 -3 -38 -3 -38 33 0 23 8 44 23 60 26 28 28 29 52 11z
m2435 -151 c0 -103 -4 -165 -10 -165 -5 0 -10 -13 -10 -30 0 -16 -4 -30 -10
-30 -14 0 -12 54 2 68 8 8 8 12 1 12 -16 0 -23 -25 -23 -86 0 -30 -4 -54 -10
-54 -5 0 -10 -13 -10 -30 0 -23 -4 -30 -20 -30 -10 0 -30 -11 -44 -25 -16 -16
-36 -25 -56 -25 -26 0 -30 3 -30 28 0 29 70 112 95 112 8 0 11 7 8 20 -4 16 0
20 20 20 14 0 29 5 33 12 4 6 3 8 -3 5 -6 -4 -13 3 -16 15 -6 22 10 41 25 32
5 -3 3 6 -3 20 -9 19 -9 40 -1 83 8 41 8 71 1 102 -15 65 3 102 54 110 4 0 7
-73 7 -164z m-4060 81 c0 -18 -15 -36 -31 -36 -12 0 -19 7 -19 20 0 15 7 20
25 20 14 0 25 -2 25 -4z m-1215 -32 c23 -15 25 -23 25 -86 0 -75 -13 -113 -36
-104 -8 3 -14 -1 -14 -9 0 -8 -4 -15 -10 -15 -6 0 -10 45 -10 115 0 73 4 115
10 115 6 0 22 -7 35 -16z m1245 1 c0 -8 6 -15 14 -15 8 0 33 -18 56 -40 23
-22 43 -40 45 -40 3 0 17 -12 33 -27 16 -16 60 -57 98 -92 196 -182 356 -337
370 -358 18 -29 10 -70 -11 -53 -10 8 -14 4 -20 -17 -3 -15 -12 -31 -18 -35
-9 -6 -9 -8 0 -8 6 0 19 7 27 16 29 28 116 -9 116 -50 0 -13 -11 -16 -55 -16
l-55 0 0 -40 c0 -35 -3 -40 -22 -41 -13 0 -17 -3 -10 -6 6 -2 12 -16 12 -29 0
-20 -5 -24 -29 -24 -28 0 -41 14 -41 46 0 8 7 14 15 14 18 0 18 -1 4 37 -8 24
-7 39 5 67 15 35 14 36 -7 36 -15 0 -28 11 -41 35 -10 19 -86 98 -169 177 -83
79 -156 149 -164 156 -7 7 -13 23 -13 34 0 17 -3 18 -15 8 -17 -14 -35 -5 -35
17 0 12 -3 13 -14 4 -19 -16 -72 -17 -89 -2 -12 9 -16 7 -20 -9 -7 -26 -32
-25 -51 2 -22 32 -20 38 14 38 23 0 30 4 30 20 0 18 7 20 70 20 63 0 70 -2 70
-20 0 -11 7 -20 15 -20 8 0 15 9 15 20 0 11 -5 20 -11 20 -14 0 -39 25 -39 39
0 6 -7 11 -16 11 -20 0 -44 24 -44 44 0 9 -7 16 -16 16 -18 0 -44 23 -44 40 0
13 22 39 33 40 4 0 7 -7 7 -15z m2665 -33 c-6 -7 -45 19 -45 29 0 5 11 2 24
-8 13 -10 23 -19 21 -21z m82 -64 c-5 -3 -16 -4 -23 -1 -10 4 -10 8 -1 17 8 9
14 10 23 2 8 -8 8 -13 1 -18z m-1148 -46 c8 -15 105 -113 332 -335 19 -19 29
-39 29 -58 0 -28 -2 -29 -45 -29 -34 0 -45 4 -45 16 0 20 -24 44 -44 44 -9 0
-16 7 -16 16 0 18 -23 44 -39 44 -6 0 -11 9 -11 20 0 15 -9 22 -30 27 -17 3
-30 12 -30 20 0 19 -25 43 -44 43 -9 0 -16 7 -16 16 0 20 -24 44 -44 44 -9 0
-16 7 -16 16 0 20 -24 44 -44 44 -12 0 -16 11 -16 45 0 45 0 45 35 45 23 0 37
-6 44 -18z m-1869 -72 c0 -53 -2 -60 -20 -60 -17 0 -20 -7 -20 -40 0 -33 -3
-40 -20 -40 -11 0 -20 5 -20 10 0 6 -4 10 -10 10 -5 0 -10 -23 -10 -51 0 -56
-24 -95 -41 -68 -6 10 -9 4 -9 -18 0 -32 -2 -33 -40 -33 -38 0 -40 -2 -40 -30
0 -16 -4 -30 -10 -30 -5 0 -10 12 -10 28 0 20 -3 23 -9 13 -5 -8 -7 -20 -4
-28 3 -7 -1 -13 -9 -13 -7 0 -20 -9 -28 -20 -11 -15 -26 -20 -57 -20 -37 0
-43 3 -49 25 -9 36 21 68 58 63 16 -3 29 1 32 9 3 8 22 13 50 13 40 0 44 2 39
21 -4 15 6 32 38 65 24 24 48 44 55 44 6 0 15 19 20 41 8 36 18 48 52 66 2 1
-2 11 -8 23 -19 35 4 80 41 80 29 0 29 -1 29 -60z m1790 -10 c0 -5 9 -10 20
-10 12 0 20 -7 20 -16 0 -20 24 -44 44 -44 9 0 16 -7 16 -16 0 -8 6 -22 14
-30 8 -8 22 -14 30 -14 9 0 16 -7 16 -15 0 -9 14 -29 30 -45 28 -27 29 -30 10
-30 -11 0 -20 7 -20 15 0 8 -5 15 -11 15 -5 0 -7 -4 -4 -10 3 -5 -1 -10 -10
-10 -8 0 -18 7 -21 15 -4 8 -12 15 -20 15 -17 0 -18 16 -1 24 6 3 3 4 -8 1
-13 -3 -34 8 -60 31 -22 20 -59 45 -81 55 -40 18 -55 40 -47 67 5 14 83 17 83
2z m-2722 -12 c14 -14 16 -84 3 -92 -5 -4 -12 -1 -14 4 -3 6 -4 5 -3 -2 1 -7
18 -15 36 -18 27 -4 35 -11 42 -35 4 -16 6 -36 3 -42 -2 -8 7 -15 23 -19 15
-3 42 -12 59 -19 30 -14 32 -18 31 -60 -1 -25 -6 -45 -10 -45 -4 0 -8 5 -8 10
0 6 -9 10 -21 10 -15 0 -19 5 -15 16 3 8 2 12 -4 9 -12 -7 -40 18 -40 35 0 17
-26 40 -44 40 -9 0 -16 8 -16 20 0 13 -7 20 -20 20 -14 0 -20 7 -20 21 0 22
-22 49 -39 49 -7 0 -11 23 -11 55 0 54 1 55 28 55 15 0 33 -5 40 -12z m4212
-78 c0 -12 7 -20 16 -20 19 0 44 -24 44 -43 0 -8 13 -17 30 -20 21 -5 30 -12
30 -27 0 -11 5 -20 11 -20 16 0 39 -26 39 -44 0 -9 7 -16 16 -16 20 0 44 -24
44 -44 0 -9 7 -16 16 -16 20 0 44 -24 44 -44 0 -9 7 -16 16 -16 18 0 44 -23
44 -39 0 -6 7 -11 16 -11 20 0 44 -24 44 -44 0 -9 7 -16 15 -16 10 0 15 -10
15 -28 0 -16 8 -34 20 -42 11 -8 20 -22 20 -32 0 -10 5 -18 10 -18 6 0 10 -45
10 -115 0 -70 -4 -115 -10 -115 -5 0 -10 -8 -10 -18 0 -10 -9 -24 -20 -32 -12
-8 -20 -26 -20 -42 0 -25 -3 -28 -37 -29 -24 -1 -29 -3 -15 -6 22 -4 32 -23
12 -23 -5 0 -10 -7 -10 -15 0 -8 -6 -15 -12 -16 -10 0 -10 -2 0 -6 17 -7 15
-23 -4 -23 -20 0 -44 -24 -44 -44 0 -9 -8 -16 -20 -16 -11 0 -20 -5 -20 -11 0
-6 -18 -9 -47 -8 -45 3 -48 2 -50 -21 l-2 -25 8 25 c9 24 9 24 10 -7 1 -30 -2
-33 -29 -33 -23 0 -30 -4 -30 -20 0 -18 -7 -20 -60 -20 -59 0 -60 0 -60 29 0
35 21 54 60 55 17 1 30 4 30 9 0 9 46 28 73 30 9 1 20 9 23 19 6 20 98 111
117 116 42 12 56 25 46 44 -13 24 -4 38 27 38 24 0 24 0 8 26 -15 22 -15 27
-3 34 10 7 14 33 15 92 2 111 2 108 21 108 9 0 13 3 9 7 -4 4 -17 8 -29 8 -17
0 -21 5 -19 23 2 12 -1 22 -6 22 -5 0 -115 105 -245 233 -215 210 -262 267
-224 267 8 0 7 4 -3 10 -11 7 -4 10 28 10 35 0 42 -3 42 -20z m294 -119 c23
-10 54 -22 69 -25 32 -8 47 -34 26 -47 -10 -6 -10 -9 -1 -9 6 0 12 -7 12 -15
0 -24 -82 -20 -100 5 -8 12 -26 20 -42 20 -21 0 -28 5 -28 19 0 11 -6 22 -12
24 -10 4 -9 8 2 16 8 6 11 11 5 11 -9 0 14 19 24 20 3 0 23 -9 45 -19z m476
-18 c0 -15 2 -16 10 -3 7 11 10 7 10 -17 0 -30 -3 -33 -30 -33 -23 0 -30 -4
-30 -20 0 -17 -7 -20 -44 -20 -30 0 -46 5 -50 15 -4 10 1 15 17 16 l22 2 -22
4 c-13 2 -23 7 -23 11 1 20 22 35 48 34 18 0 33 5 36 14 8 21 56 18 56 -3z
m-2046 -19 c30 -29 19 -33 -14 -4 -13 11 -18 20 -12 20 6 0 18 -7 26 -16z
m-2061 -8 c7 -18 -1 -26 -25 -26 -20 0 -25 -16 -5 -23 7 -2 8 -8 3 -13 -5 -5
-11 -4 -13 4 -6 17 -20 15 -27 -4 -3 -8 -2 -12 4 -9 6 3 7 -1 4 -9 -3 -9 -14
-16 -23 -17 -10 0 -11 -2 -3 -6 17 -7 15 -23 -3 -23 -8 0 -15 -7 -15 -16 0 -9
-11 -27 -25 -40 -14 -13 -25 -25 -25 -28 0 -3 -23 -30 -52 -61 -28 -31 -63
-72 -76 -91 -14 -21 -29 -33 -37 -30 -11 4 -12 0 -6 -17 14 -42 -9 -72 -46
-60 -15 5 -18 93 -3 93 6 0 10 14 10 31 0 29 2 31 30 27 17 -3 30 -1 30 4 0 4
-7 8 -15 8 -8 0 -15 7 -15 15 0 8 6 15 14 15 8 0 16 -7 20 -15 3 -8 11 -15 18
-14 10 0 10 2 1 6 -7 2 -13 13 -13 24 0 15 8 19 33 20 23 1 26 3 10 6 -28 5
-30 33 -3 33 11 0 20 5 20 10 0 6 17 11 38 11 30 2 32 3 10 6 -30 5 -39 23
-12 23 20 0 44 24 44 44 0 9 7 16 16 16 20 0 44 24 44 44 0 9 6 16 13 16 6 0
23 14 37 30 28 33 36 36 43 16z m2101 -21 c5 -22 4 -26 -4 -15 -5 8 -10 24
-10 34 0 26 6 18 14 -19z m1827 0 c19 -8 27 -15 19 -15 -10 -1 -11 -3 -2 -7 6
-2 12 -13 12 -24 0 -18 -8 -19 -105 -19 -116 0 -125 6 -83 55 18 21 31 25 74
25 28 0 67 -7 85 -15z m-4571 -37 c0 -32 0 -32 16 -10 20 29 58 29 71 -1 23
-49 -55 -82 -87 -37 -8 11 -20 20 -27 20 -8 0 -13 12 -13 30 0 23 4 30 20 30
16 0 20 -7 20 -32z m231 -21 c9 -7 19 -24 23 -39 l6 -28 -70 0 c-63 0 -70 2
-70 20 0 11 5 20 12 20 6 0 8 3 5 7 -4 3 -2 12 4 20 14 16 69 17 90 0z m2793
-153 c3 -9 6 -45 6 -80 0 -61 -1 -64 -24 -64 -19 0 -25 -6 -28 -27 -2 -24 -7
-28 -30 -26 -22 1 -28 -3 -28 -18 0 -11 -8 -22 -17 -26 -18 -6 -101 -88 -238
-235 -125 -134 -126 -135 -127 -197 -1 -31 7 -80 17 -109 15 -46 16 -56 4 -64
-11 -8 -10 -8 5 -4 19 6 51 -10 85 -42 9 -9 50 -46 91 -82 40 -36 125 -114
188 -175 63 -60 134 -128 158 -149 24 -21 44 -45 44 -52 0 -8 11 -12 28 -11
23 2 28 -2 30 -25 2 -17 9 -28 18 -28 8 0 13 4 10 9 -7 11 39 31 74 31 17 0
39 -9 50 -20 20 -20 35 -27 27 -12 -3 4 -1 17 4 29 6 17 16 23 39 23 16 0 30
5 30 10 0 14 60 39 77 33 7 -3 10 -10 6 -17 -4 -6 -6 -23 -4 -38 2 -25 -1 -28
-28 -28 -24 0 -31 -4 -31 -20 0 -17 -7 -20 -50 -20 -27 0 -50 -4 -50 -10 0 -6
-35 -10 -85 -10 -50 0 -85 4 -85 10 0 6 -18 10 -40 10 -33 0 -40 3 -40 20 0
16 -7 20 -30 20 -27 0 -30 3 -30 33 0 22 -3 28 -9 18 -8 -12 -11 -12 -24 0 -8
8 -18 25 -22 38 -5 17 -9 20 -15 11 -7 -11 -11 -10 -24 3 -9 8 -16 23 -16 31
0 9 -7 16 -16 16 -20 0 -44 24 -44 44 0 9 -7 16 -16 16 -20 0 -44 24 -44 44 0
9 -7 16 -16 16 -19 0 -44 24 -44 43 0 8 -11 18 -25 21 -16 4 -25 13 -25 26 0
12 -7 20 -16 20 -20 0 -44 24 -44 44 0 9 -7 16 -16 16 -20 0 -44 24 -44 44 0
9 -7 16 -16 16 -24 0 -44 25 -44 56 0 24 2 25 18 13 13 -11 13 -9 -2 9 -13 15
-23 19 -30 12 -5 -5 -16 -10 -23 -10 -10 0 -13 26 -13 105 0 113 -3 117 -55
95 -17 -7 -17 -9 -2 -9 9 -1 17 -4 17 -7 0 -11 -29 -34 -44 -34 -9 0 -16 -7
-16 -16 0 -20 -24 -44 -44 -44 -9 0 -16 -9 -16 -20 0 -15 -9 -22 -30 -26 -17
-4 -30 -13 -30 -21 0 -14 -23 -43 -34 -43 -2 0 -6 8 -8 18 -2 9 -9 -4 -16 -30
-15 -58 -42 -67 -42 -14 0 25 7 40 25 54 14 11 25 24 25 29 0 11 119 141 338
372 247 259 336 341 374 341 12 0 18 7 18 24 0 43 10 56 45 56 21 0 35 -6 39
-16z m181 -113 c3 -5 1 -12 -5 -16 -5 -3 -10 1 -10 9 0 18 6 21 15 7z m-75
-53 c0 -14 3 -18 8 -12 5 9 11 7 21 -3 13 -14 11 -15 -17 -11 -18 2 -32 1 -32
-4 0 -5 -10 -8 -22 -6 -17 2 -24 11 -26 31 -3 25 -1 27 32 27 31 0 36 -3 36
-22z m140 -15 c0 -12 3 -13 13 -5 10 8 17 7 28 -6 9 -9 29 -28 46 -42 17 -14
70 -61 118 -105 92 -84 113 -103 235 -219 108 -102 132 -121 158 -123 34 -3
52 -21 52 -54 0 -28 -1 -29 -55 -29 -48 0 -55 2 -55 20 0 15 -7 20 -26 20 -33
0 -64 28 -44 40 10 6 6 11 -15 16 -35 9 -55 26 -55 48 0 9 -8 16 -19 16 -11 0
-21 6 -24 13 -2 7 -8 8 -13 3 -5 -5 -4 -11 4 -13 6 -3 12 -13 12 -24 0 -11 7
-19 16 -19 24 0 44 -25 45 -57 0 -15 3 -22 6 -15 11 28 53 -1 53 -37 0 -14 6
-21 20 -21 18 0 20 -7 20 -65 l0 -65 -31 0 c-25 0 -32 6 -45 35 -8 20 -12 40
-9 44 3 5 -2 11 -10 15 -8 3 -15 12 -15 19 0 8 -106 117 -235 243 -217 209
-236 230 -233 258 3 27 7 31 36 34 19 2 38 -3 48 -12 9 -9 21 -13 27 -9 6 4 2
9 -11 14 -15 6 -22 17 -22 34 0 21 -5 25 -30 25 -23 0 -30 5 -30 19 0 19 18
32 33 24 4 -2 7 -11 7 -20z m-1826 -50 c-5 -5 -12 -12 -16 -18 -4 -6 -8 -2 -8
8 0 9 7 17 17 17 9 0 12 -3 7 -7z m-84 -113 c0 -5 -7 -10 -16 -10 -8 0 -12 5
-9 10 3 6 10 10 16 10 5 0 9 -4 9 -10z m-1034 -51 c4 -21 13 -40 20 -43 8 -3
14 -14 14 -24 0 -10 5 -23 12 -30 8 -8 8 -15 -1 -26 -10 -12 -9 -16 6 -25 14
-8 8 -9 -22 -4 -22 3 -41 10 -43 15 -2 4 -10 8 -18 8 -8 0 -14 10 -14 25 0 14
-4 25 -10 25 -15 0 -13 117 3 123 28 9 47 -6 53 -44z m1008 -71 c-3 -4 -11 -5
-19 -1 -21 7 -19 12 4 10 11 0 18 -5 15 -9z m-190 -34 c22 -9 22 -84 0 -84 -8
0 -22 -6 -30 -14 -8 -8 -14 -22 -14 -30 0 -9 -5 -16 -11 -16 -16 0 -39 -26
-39 -44 0 -9 -8 -16 -20 -16 -11 0 -20 -4 -20 -10 0 -5 -16 -10 -35 -10 -33 0
-35 2 -35 31 0 26 14 46 83 115 84 84 92 89 121 78z m141 -17 c6 -5 4 -7 -6
-4 -9 3 -22 1 -30 -4 -12 -7 -12 -10 0 -18 11 -7 10 -12 -4 -29 -10 -11 -25
-18 -33 -15 -10 5 -13 1 -8 -13 6 -20 -11 -43 -106 -146 -21 -23 -40 -49 -43
-59 -4 -11 -15 -19 -25 -19 -14 0 -18 -7 -16 -32 1 -30 -2 -33 -31 -36 -32 -3
-33 -2 -33 37 0 34 3 41 20 41 15 0 20 7 20 25 0 14 5 25 10 25 6 0 10 9 10
20 0 21 20 28 21 8 0 -7 5 -3 11 10 6 12 15 22 20 22 4 0 8 9 8 20 0 11 5 20
11 20 16 0 39 26 39 44 0 9 7 16 16 16 8 0 22 6 30 14 8 8 14 22 14 30 0 9 7
16 15 16 15 0 29 9 58 36 7 7 14 9 17 6 3 -4 10 -11 15 -15z m-817 -80 c23
-23 42 -50 42 -58 0 -10 15 -19 43 -25 39 -8 42 -11 40 -39 -2 -25 0 -27 8
-12 5 9 21 17 33 17 24 0 41 -24 30 -41 -8 -14 9 -10 30 6 27 20 95 19 118 -2
10 -9 18 -27 18 -40 0 -22 -2 -23 -85 -23 -78 0 -85 2 -85 20 0 15 -7 20 -27
20 -64 0 -103 12 -103 31 0 12 -7 19 -20 19 -11 0 -20 5 -20 10 0 6 -13 10
-30 10 -21 0 -30 5 -30 16 0 20 -24 44 -44 44 -19 0 -22 20 -3 21 10 0 10 2 0
6 -7 2 -13 11 -13 19 0 8 -4 14 -10 14 -20 0 -10 19 13 23 46 9 54 6 95 -36z
m440 -139 c5 -21 6 -21 13 -2 6 16 8 15 8 -8 1 -27 -1 -28 -44 -28 -40 0 -45
2 -45 23 0 30 7 37 38 37 16 0 26 -7 30 -22z m1242 -128 c0 -5 -4 -10 -10 -10
-5 0 -10 5 -10 10 0 6 5 10 10 10 6 0 10 -4 10 -10z m0 -50 c0 -12 -7 -20 -16
-20 -20 0 -44 -24 -44 -44 0 -20 -14 -21 -30 -1 -13 16 -4 39 11 29 12 -7 51
35 43 47 -3 5 4 9 15 9 14 0 21 -6 21 -20z m1626 -60 c10 0 14 -13 14 -45 0
-38 -3 -45 -20 -45 -16 0 -20 -7 -20 -30 0 -16 -4 -30 -10 -30 -5 0 -10 -13
-10 -30 0 -23 -4 -30 -20 -30 -13 0 -20 -7 -20 -20 0 -21 -20 -29 -20 -7 -1 6
-7 1 -15 -13 -14 -24 -14 -24 -15 -3 0 12 6 28 14 36 8 8 12 24 9 40 -5 23 -2
27 18 27 36 0 56 16 30 23 -20 5 -30 27 -13 27 4 0 13 4 20 9 11 7 12 12 1 29
-17 27 3 77 27 68 9 -3 22 -6 30 -6z m-1246 -30 c0 -5 18 -10 40 -10 33 0 40
-3 40 -20 0 -16 9 -21 50 -26 34 -4 50 -11 50 -21 0 -17 24 -43 39 -43 6 0 11
-9 11 -20 0 -13 7 -20 20 -20 15 0 20 -7 20 -29 0 -28 -14 -41 -45 -41 -18 0
-125 107 -125 125 0 8 -13 13 -35 13 -20 0 -47 7 -60 16 -21 14 -23 20 -15 36
10 19 -4 40 -17 26 -4 -3 0 -6 7 -6 9 0 8 -5 -4 -19 -15 -17 -28 -18 -124 -14
-91 4 -110 8 -124 25 -10 11 -18 24 -18 29 0 5 65 9 145 9 90 0 145 -4 145
-10z m-302 -42 c-3 -37 -27 -48 -51 -23 -14 14 -16 12 -19 -12 -2 -20 -8 -28
-20 -27 -10 1 -18 -2 -18 -6 0 -9 -121 -130 -131 -130 -4 0 -9 -10 -11 -22 -2
-16 -10 -23 -25 -23 -12 0 -26 -5 -30 -9 -4 -5 -3 -6 4 -2 7 4 17 -2 23 -15
15 -27 -6 -51 -44 -51 -17 0 -26 -6 -26 -17 0 -12 2 -13 9 -3 6 11 11 10 25
-3 21 -21 23 -186 3 -207 -18 -17 -10 -38 14 -38 14 0 19 -7 19 -25 0 -16 -6
-25 -16 -25 -8 0 -12 -4 -9 -10 3 -5 15 -10 26 -10 24 0 37 -29 18 -41 -11 -7
-9 -9 8 -9 24 0 133 -103 133 -126 0 -8 10 -14 24 -14 44 0 86 -21 86 -42 0
-15 3 -18 13 -11 6 6 67 10 135 9 110 -1 125 -3 138 -20 13 -19 14 -19 14 5 0
31 17 49 47 49 13 0 23 4 23 9 0 6 23 22 51 37 37 21 59 43 86 86 20 32 40 58
44 58 5 0 9 11 9 25 0 25 34 49 53 38 4 -2 7 0 7 5 0 6 -7 12 -15 16 -17 6
-19 46 -6 94 7 22 6 51 -2 88 -8 40 -8 62 0 84 6 17 8 28 3 25 -14 -9 -38 6
-43 27 -6 23 21 67 41 68 26 0 44 -30 40 -64 -3 -25 0 -32 9 -29 10 4 13 -28
13 -151 0 -97 -4 -156 -10 -156 -5 0 -10 -22 -10 -50 0 -43 -3 -50 -20 -50
-16 0 -20 -7 -20 -30 0 -21 -5 -30 -16 -30 -19 0 -44 -24 -44 -43 0 -8 -11
-18 -25 -21 -16 -4 -25 -13 -25 -26 0 -13 -7 -20 -20 -20 -13 0 -20 -7 -20
-20 0 -16 -7 -20 -30 -20 -16 0 -30 -4 -30 -10 0 -5 -18 -10 -40 -10 -33 0
-40 -3 -40 -20 0 -19 -7 -20 -165 -20 -158 0 -165 1 -165 20 0 16 -7 20 -35
20 -30 0 -35 3 -35 23 0 13 -3 17 -8 11 -5 -9 -10 -8 -19 1 -10 11 -7 14 15
18 15 2 1 5 -30 6 -51 1 -58 3 -58 21 0 15 -9 22 -30 27 -16 3 -30 9 -30 14 0
5 -9 9 -20 9 -15 0 -20 7 -20 27 0 43 -24 160 -28 136 -2 -13 -8 -23 -13 -23
-14 0 -11 68 4 73 6 3 2 6 -10 6 -23 1 -23 3 -23 136 0 83 4 135 10 135 6 0
10 16 10 35 0 28 4 35 19 35 16 0 20 10 26 60 6 50 10 60 26 60 12 0 19 7 19
20 0 12 7 20 16 20 20 0 44 24 44 43 0 11 17 17 60 22 50 6 60 10 60 26 0 16
7 19 41 19 39 0 40 -1 37 -32z m-1210 -30 c3 -21 -1 -28 -15 -29 -10 -1 -4 -4
12 -8 21 -4 31 -13 33 -28 2 -12 11 -25 20 -28 10 -3 26 -18 35 -35 10 -16 45
-53 77 -81 33 -29 60 -58 60 -65 0 -7 10 -14 23 -16 13 -2 22 -10 22 -20 0 -9
4 -20 9 -25 5 -4 6 -3 2 5 -5 8 0 12 13 12 31 0 36 -3 35 -23 -1 -15 1 -15 16
-2 11 10 37 15 72 15 63 0 91 -18 96 -62 l3 -28 -95 0 c-89 0 -96 1 -96 20 0
16 -7 20 -30 20 -16 0 -30 5 -30 10 0 6 -13 10 -30 10 -23 0 -30 4 -30 20 0
16 -7 20 -30 20 -23 0 -30 4 -30 20 0 12 -7 20 -16 20 -18 0 -44 23 -44 39 0
6 -5 11 -11 11 -16 0 -39 26 -39 44 0 9 -8 16 -20 16 -16 0 -20 7 -20 30 0 17
-4 30 -10 30 -5 0 -10 14 -10 30 0 23 -4 30 -20 30 -17 0 -20 7 -20 41 0 39 1
40 33 37 27 -2 33 -8 35 -30z m2596 -154 c11 -4 16 -19 16 -50 0 -42 -1 -44
-30 -44 -20 0 -30 5 -30 15 0 8 -4 15 -9 15 -13 0 -3 53 12 62 15 9 21 10 41
2z m-1864 -35 c0 -6 7 -9 15 -5 12 4 15 -3 15 -29 0 -25 -4 -35 -16 -35 -9 0
-29 -13 -44 -30 -44 -47 -102 -35 -83 18 17 49 113 118 113 81z m1810 -79 c0
-5 -7 -10 -15 -10 -8 0 -15 5 -15 10 0 6 7 10 15 10 8 0 15 -4 15 -10z m-1932
-77 c1 -33 1 -33 -43 -33 -43 0 -45 1 -45 28 0 38 7 43 50 40 34 -3 37 -5 38
-35z"/>
<path d="M3430 5290 c0 -6 7 -10 15 -10 8 0 15 2 15 4 0 2 -7 6 -15 10 -8 3
-15 1 -15 -4z"/>
<path d="M4375 4650 c-3 -5 -1 -10 4 -10 6 0 11 5 11 10 0 6 -2 10 -4 10 -3 0
-8 -4 -11 -10z"/>
<path d="M2440 3720 c0 -5 5 -10 10 -10 6 0 10 5 10 10 0 6 -4 10 -10 10 -5 0
-10 -4 -10 -10z"/>
<path d="M2332 3708 c6 -18 25 -20 31 -3 5 10 0 15 -14 15 -12 0 -19 -5 -17
-12z"/>
<path d="M2400 3514 c0 -10 31 -36 37 -31 3 3 -2 13 -10 22 -16 15 -27 19 -27
9z"/>
<path d="M2450 3467 c0 -11 41 -49 47 -44 3 4 -4 16 -17 27 -22 19 -30 24 -30
17z"/>
<path d="M2535 3384 c9 -9 19 -13 23 -10 3 4 0 11 -8 16 -24 15 -33 11 -15 -6z"/>
<path d="M2580 3344 c0 -3 7 -12 15 -20 16 -17 18 -14 9 10 -6 15 -24 23 -24
10z"/>
<path d="M2540 2441 c0 -11 -6 -21 -12 -24 -7 -2 -10 -8 -6 -12 9 -10 38 19
38 39 0 9 -4 16 -10 16 -5 0 -10 -9 -10 -19z"/>
<path d="M4500 3110 c-9 -6 -10 -10 -3 -10 6 0 15 5 18 10 8 12 4 12 -15 0z"/>
<path d="M4795 3260 c-3 -5 -1 -10 4 -10 6 0 11 5 11 10 0 6 -2 10 -4 10 -3 0
-8 -4 -11 -10z"/>
<path d="M1031 3354 c0 -11 3 -14 6 -6 3 7 2 16 -1 19 -3 4 -6 -2 -5 -13z"/>
<path d="M1115 3320 c-3 -5 -1 -10 4 -10 6 0 11 5 11 10 0 6 -2 10 -4 10 -3 0
-8 -4 -11 -10z"/>
<path d="M1880 2720 c0 -5 5 -10 11 -10 5 0 7 5 4 10 -3 6 -8 10 -11 10 -2 0
-4 -4 -4 -10z"/>
<path d="M1941 2654 c0 -11 3 -14 6 -6 3 7 2 16 -1 19 -3 4 -6 -2 -5 -13z"/>
<path d="M2130 2429 c0 -5 5 -7 10 -4 6 3 10 8 10 11 0 2 -4 4 -10 4 -5 0 -10
-5 -10 -11z"/>
<path d="M550 2510 c0 -5 5 -10 11 -10 5 0 7 5 4 10 -3 6 -8 10 -11 10 -2 0
-4 -4 -4 -10z"/>
<path d="M587 2479 c7 -7 15 -10 18 -7 3 3 -2 9 -12 12 -14 6 -15 5 -6 -5z"/>
<path d="M3600 2118 c0 -9 -6 -19 -12 -21 -10 -4 -10 -6 0 -6 14 -1 28 26 18
36 -3 4 -6 -1 -6 -9z"/>
<path d="M3530 2060 c-9 -6 -10 -10 -3 -10 6 0 15 5 18 10 8 12 4 12 -15 0z"/>
<path d="M3022 1598 c-7 -7 -12 -16 -12 -21 0 -5 7 -1 16 8 9 9 14 18 12 20
-2 3 -10 -1 -16 -7z"/>
<path d="M4000 1974 c0 -10 31 -36 37 -31 3 3 -2 13 -10 22 -16 15 -27 19 -27
9z"/>
<path d="M4058 1973 c7 -3 16 -2 19 1 4 3 -2 6 -13 5 -11 0 -14 -3 -6 -6z"/>
<path d="M4060 1914 c0 -10 31 -36 37 -31 3 3 -2 13 -10 22 -16 15 -27 19 -27
9z"/>
<path d="M4120 1854 c0 -10 31 -36 37 -31 3 3 -2 13 -10 22 -16 15 -27 19 -27
9z"/>
<path d="M4180 1790 c0 -5 5 -10 10 -10 6 0 10 -7 10 -15 0 -8 5 -15 10 -15
15 0 12 19 -4 36 -17 16 -26 18 -26 4z"/>
<path d="M4240 1740 c0 -5 5 -10 10 -10 6 0 10 -10 10 -22 0 -12 3 -19 6 -15
9 9 -5 57 -16 57 -6 0 -10 -4 -10 -10z"/>
</g>
</svg>
